<svg width="775" height="575" viewBox="0 0 775 575" fill="none" xmlns="http://www.w3.org/2000/svg">
<g id="undraw_Ride_a_bicycle_2yok 1" clip-path="url(#clip0)">
<path id="bg" d="M153.674 84.5528C149.658 89.4239 148.112 96.2728 146.383 102.712C132.461 154.602 98.1554 196.34 59.0867 226.153C42.5418 238.781 22.3993 255.717 26.019 278.358C27.968 290.518 36.5189 299.469 42.8716 309.373C56.1998 330.11 60.5228 358.296 54.1701 383.121C46.9455 411.366 26.7517 437.722 33.0018 466.282C36.8559 483.862 49.9423 496.373 62.5232 507.126C82.1503 523.891 102.403 539.596 123.28 554.241C137.275 564.056 152.164 573.608 168.475 574.854C182.836 575.952 196.904 570.495 210.54 565.111C222.454 560.401 234.669 555.501 244.289 546.066C250.569 539.906 255.573 531.958 262.549 526.919C278.933 515.081 299.976 522.582 318.763 527.651C363.093 539.547 410.537 535.203 452.72 515.389C517.426 484.99 566.746 421.152 630.038 386.901C657.252 372.17 686.853 363.028 712.052 344.057C726.248 333.255 738.448 320.057 748.102 305.058C767.153 275.677 777.455 238.217 774.48 201.548C771.505 164.879 754.835 129.543 728.655 108.843C700.629 86.6844 665.231 82.5457 633.343 69.2435C600.414 55.5017 571.12 31.8858 538.507 17.1406C512.117 5.24226 483.397 -0.598572 454.455 0.0465977C425.512 0.691768 397.081 7.80657 371.248 20.869C335.755 38.8153 299.779 80.6852 260.248 83.8642C232.082 86.0617 175.67 57.875 153.674 84.5528Z" fill="url(#paint0_linear)"/>
<g id="bikeMan">
<path id="Vector" d="M283.563 406.029L252.271 375.158L242.492 385.064L273.784 415.935L283.563 406.029Z" fill="#AE5517"/>
<path id="Vector_2" opacity="0.1" d="M283.563 406.029L252.271 375.158L242.492 385.064L273.784 415.935L283.563 406.029Z" fill="black"/>
<path id="Vector_3" d="M259.735 360.384C259.735 360.384 277.899 350.803 284.919 344.635C289.145 340.939 293.688 337.623 298.496 334.724L321.284 320.858L368.911 317.196L371.109 325.253C371.109 325.253 374.773 336.973 338.137 347.228C301.5 357.483 283.182 373.598 283.182 373.598C283.182 373.598 259.735 381.627 259.735 360.384Z" fill="#DB8B8B"/>
<path id="Vector_4" opacity="0.1" d="M285.124 372.009C283.827 372.998 283.182 373.569 283.182 373.569C283.182 373.569 259.735 381.627 259.735 360.384C259.735 360.384 260.871 359.783 262.666 358.78C264.48 361.732 267.02 364.171 270.045 365.862C273.07 367.554 276.478 368.442 279.944 368.442H282.428L285.124 372.009Z" fill="black"/>
<path id="Vector_5" opacity="0.05" d="M370.42 329.297C368.383 333.611 361.357 340.702 338.137 347.199C308.381 355.527 290.707 367.709 285.124 372.009C283.827 372.998 283.182 373.569 283.182 373.569C283.182 373.569 259.735 381.627 259.735 360.384C259.735 360.384 260.871 359.783 262.666 358.78C268.11 355.798 279.636 349.257 284.897 344.606C289.122 340.909 293.665 337.592 298.474 334.695L321.262 320.829L329.747 320.177L368.889 317.166L371.087 325.224C371.087 325.224 371.6 326.799 370.42 329.297Z" fill="black"/>
<path id="Vector_6" d="M260.102 355.623L240.685 368.442L297.544 416.054C297.544 416.054 305.897 410.927 301.5 405.067C301.5 405.067 286.846 392.614 286.113 375.034L281.717 369.174H279.233C275.033 369.175 270.936 367.871 267.509 365.444C264.082 363.016 261.494 359.584 260.102 355.623V355.623Z" fill="#ABB1D1"/>
<path id="Vector_7" opacity="0.1" d="M370.42 329.297C358.697 323.634 330.077 323.026 330.077 323.026L329.769 320.177L368.911 317.166L371.109 325.224C371.109 325.224 371.6 326.799 370.42 329.297Z" fill="black"/>
<path id="Vector_8" d="M330.077 321.561C330.077 321.561 364.515 322.294 373.307 329.619L368.911 240.986H321.284L330.077 321.561Z" fill="#ABB1D1"/>
<path id="Vector_9" opacity="0.05" d="M330.077 321.195C330.077 321.195 364.515 321.928 373.307 329.253L368.911 240.62H321.284L330.077 321.195Z" fill="black"/>
<path id="Vector_10" d="M357.744 267.327C357.744 267.327 443.949 264.397 445.707 275.538C447.466 286.68 359.503 281.984 359.503 281.984C359.503 281.984 352.469 274.945 357.744 267.327Z" fill="#535461"/>
<path id="Vector_11" opacity="0.05" d="M357.744 267.327C357.744 267.327 443.949 264.397 445.707 275.538C447.466 286.68 359.503 281.984 359.503 281.984C359.503 281.984 352.469 274.945 357.744 267.327Z" fill="black"/>
<path id="Vector_12" d="M287.96 311.885H272.712V444.38H287.96V311.885Z" fill="#AE5517"/>
<path id="Vector_13" opacity="0.1" d="M287.96 311.878V322.081C282.889 322.741 277.702 323.158 272.712 323.319V311.878H287.96Z" fill="black"/>
<path id="Vector_14" d="M286.817 300.897C284.677 300.732 282.549 300.446 280.442 300.04C272.177 298.458 251.338 295.14 245.733 300.773C238.699 307.805 241.044 320.118 259.809 321.876C278.574 323.634 310.828 318.946 317.283 311.907C317.283 311.878 305.611 302.341 286.817 300.897Z" fill="#535461"/>
<path id="Vector_15" d="M283.856 348.232L443.956 298.4L449.232 310.713L285.029 366.991L283.856 348.232Z" fill="#AE5517"/>
<path id="Vector_16" d="M331.359 426.793L446.887 313.057L453.335 322.433L343.082 437.341L331.359 426.793Z" fill="#AE5517"/>
<path id="Vector_17" opacity="0.1" d="M478.892 388.116C475.232 389.063 471.662 390.33 468.224 391.904L461.219 372.338C464.895 370.736 468.681 369.397 472.547 368.332L478.892 388.116Z" fill="black"/>
<path id="Vector_18" d="M498.493 445.552L490.286 450.24L433.031 290.313L430.467 283.156L443.956 275.531L447.334 286.064L498.493 445.552Z" fill="#AE5517"/>
<path id="Vector_19" opacity="0.1" d="M447.334 286.064L433.031 290.313L430.467 283.156L443.956 275.531L447.334 286.064Z" fill="black"/>
<path id="Vector_20" d="M360.089 298.4L440.432 270.843C440.432 270.843 454.507 272.601 449.225 284.328L368.303 308.362C368.303 308.362 355.993 309.534 360.089 298.4Z" fill="#535461"/>
<path id="Vector_21" opacity="0.1" d="M269.488 451.119C269.487 455.612 269.139 460.099 268.447 464.539C261.413 464.033 254.145 463.301 247.023 462.568C248.605 453.858 248.408 444.918 246.444 436.286C253.383 434.821 260.468 433.422 267.385 432.155C268.786 438.379 269.492 444.739 269.488 451.119V451.119Z" fill="black"/>
<path id="Vector_22" opacity="0.1" d="M287.96 428.792V444.373H272.712V431.188C277.987 430.272 283.116 429.459 287.96 428.792Z" fill="black"/>
<path id="Vector_23" d="M189.438 450.848C189.438 450.848 312.594 418.618 322.559 430.917C332.524 443.215 343.082 459.638 312.03 465.498C280.977 471.358 187.115 455.529 187.115 455.529L189.438 450.848Z" fill="#AE5517"/>
<path id="Vector_24" opacity="0.1" d="M250.012 396.555L234.361 410.875C231.59 407.318 228.456 404.058 225.012 401.148L239.622 385.89C243.384 389.141 246.86 392.71 250.012 396.555V396.555Z" fill="black"/>
<path id="Vector_25" d="M185.335 444.38L277.401 348.232L280.339 370.507L190.024 453.17L185.335 444.38Z" fill="#AE5517"/>
<path id="Vector_26" opacity="0.1" d="M184.162 460.21C189.346 460.21 193.549 456.008 193.549 450.826C193.549 445.644 189.346 441.443 184.162 441.443C178.979 441.443 174.776 445.644 174.776 450.826C174.776 456.008 178.979 460.21 184.162 460.21Z" fill="black"/>
<path id="Vector_27" opacity="0.1" d="M494.683 459.33C499.866 459.33 504.069 455.129 504.069 449.947C504.069 444.765 499.866 440.564 494.683 440.564C489.499 440.564 485.296 444.765 485.296 449.947C485.296 455.129 489.499 459.33 494.683 459.33Z" fill="black"/>
<path id="Vector_28" opacity="0.1" d="M328.421 460.209C338.784 460.209 347.186 451.811 347.186 441.45C347.186 431.09 338.784 422.691 328.421 422.691C318.057 422.691 309.656 431.09 309.656 441.45C309.656 451.811 318.057 460.209 328.421 460.209Z" fill="black"/>
<path id="Vector_29" d="M329.6 460.209C339.964 460.209 348.365 451.811 348.365 441.45C348.365 431.09 339.964 422.691 329.6 422.691C319.237 422.691 310.835 431.09 310.835 441.45C310.835 451.811 319.237 460.209 329.6 460.209Z" fill="#535461"/>
<path id="Vector_30" d="M324.59 440.041L324.584 440.045C322.381 441.693 321.93 444.814 323.578 447.017L338.471 466.927C340.119 469.13 343.242 469.58 345.446 467.933L345.451 467.929C347.655 466.281 348.106 463.16 346.458 460.956L331.564 441.047C329.916 438.844 326.794 438.393 324.59 440.041Z" fill="#AE5517"/>
<path id="Vector_31" d="M414.34 180.921L412.596 202.977C412.395 205.77 412.432 208.576 412.706 211.364C412.933 213.832 412.706 218.154 410.288 224.747C407.183 233.168 405.579 242.068 405.547 251.043V276.146L388.694 273.216C388.694 273.216 389.427 238.056 386.496 232.196C383.565 226.336 388.694 174.328 388.694 174.328L414.34 180.921Z" fill="#DB8B8B"/>
<path id="Vector_32" opacity="0.05" d="M413.475 191.85L412.596 202.977C412.398 205.768 412.437 208.571 412.713 211.356C412.94 213.825 412.713 218.147 410.295 224.747C407.19 233.168 405.586 242.068 405.554 251.043V276.146L388.702 273.216C388.702 273.216 389.434 238.056 386.503 232.196C384.43 228.043 386.394 200.742 387.72 185.162C388.269 178.753 388.702 174.328 388.702 174.328L414.347 180.921L413.475 191.85Z" fill="black"/>
<path id="Vector_33" d="M330.824 349.396L324.486 385.435C323.687 390.247 322.461 394.978 320.822 399.573C317.107 409.725 319.481 423.958 321.284 431.722C322.083 435.15 322.749 437.319 322.749 437.319L303.699 447.574L297.837 443.179V440.249L297.104 375.056C292.708 364.801 294.173 349.418 297.104 343.558C297.938 341.633 298.523 339.61 298.848 337.537C300.313 329.685 300.768 318.653 300.768 318.653C300.768 318.653 312.491 298.876 326.413 312.061C331.542 316.917 333.491 323.268 333.901 329.348C334.619 339.757 330.824 349.396 330.824 349.396Z" fill="#DB8B8B"/>
<path id="Vector_34" opacity="0.1" d="M333.901 329.326C323.739 335.362 306.058 337.069 298.848 337.515C300.313 329.663 300.768 318.631 300.768 318.631C300.768 318.631 312.491 298.854 326.413 312.039C331.542 316.895 333.491 323.246 333.901 329.326Z" fill="black"/>
<path id="Vector_35" d="M358.653 311.306C350.861 315.454 343.498 320.362 336.671 325.956C324.948 335.479 295.639 336.211 295.639 336.211V325.224C296.371 312.039 283.915 297.389 267.062 256.369C256.299 230.174 259.281 215.349 262.842 208.023C264.864 203.885 267.062 202.163 267.062 202.163L358.653 219.744L361.928 229.559L368.911 250.509C368.911 250.509 343.266 251.974 338.869 254.171C334.473 256.369 337.404 276.146 337.404 276.146C333.007 296.656 358.653 311.306 358.653 311.306Z" fill="#ABB1D1"/>
<path id="Vector_36" opacity="0.1" d="M414.34 180.921L413.475 191.85C400.726 195.512 391.625 183.851 391.625 183.851C390.295 184.207 388.989 184.645 387.713 185.162C388.262 178.753 388.694 174.328 388.694 174.328L414.34 180.921Z" fill="black"/>
<path id="Vector_37" opacity="0.1" d="M361.928 229.559C361.584 232.98 361.584 235.126 361.584 235.126C361.584 235.126 344.731 249.044 316.155 227.801C287.579 206.558 261.933 212.418 261.933 212.418C261.933 212.418 262.234 210.719 262.842 208.023C264.864 203.885 267.063 202.163 267.063 202.163L358.653 219.744L361.928 229.559Z" fill="black"/>
<path id="Vector_38" d="M424.217 152.317C422.304 167.223 421.667 186.012 421.667 186.012C404.814 199.197 391.625 182.349 391.625 182.349C375.711 186.62 368.229 200.545 364.705 212.697C362.817 219.27 361.769 226.056 361.584 232.892C361.584 232.892 357.129 236.554 348.922 237.287C341.163 237.939 330.04 235.917 316.155 225.567C287.579 204.324 261.933 210.184 261.933 210.184C261.933 210.184 267.063 180.884 278.786 172.094C290.51 163.304 299.302 152.317 313.957 118.621C328.611 84.9263 358.653 92.9838 358.653 92.9838C358.653 92.9838 360.118 86.3913 387.229 92.9838C393.832 94.714 399.944 97.9509 405.085 102.44C419.586 114.629 426.62 133.535 424.217 152.317Z" fill="white"/>
<path id="Vector_39" d="M397.025 109.502C396.989 110.476 396.908 111.56 396.776 112.769C395.311 125.954 393.845 124.489 377.726 127.419C367.702 129.243 362.492 120.87 359.986 114.278C359.079 111.89 358.395 109.423 357.942 106.909L393.113 101.049C393.113 101.049 397.326 99.8695 397.025 109.502Z" fill="#DB8B8B"/>
<path id="Vector_40" opacity="0.05" d="M364.705 212.733C362.817 219.307 361.769 226.092 361.584 232.929C361.584 232.929 357.129 236.591 348.922 237.324C348.691 236.857 348.514 236.365 348.395 235.859C346.929 229.266 335.938 217.546 335.938 217.546C328.611 210.953 327.146 199.233 327.146 199.233L315.056 163.707L311.026 160.411C311.026 160.411 327.878 147.226 342.533 158.213C357.187 169.201 352.791 192.641 352.791 192.641L355.722 200.698C358.763 203.262 361.855 207.782 364.705 212.733Z" fill="black"/>
<path id="Vector_41" d="M313.224 159.678L329.344 198.501C329.344 198.501 330.809 210.221 338.137 216.813C338.137 216.813 349.127 228.533 350.593 235.126C352.058 241.719 372.574 259.299 372.574 259.299C372.574 259.299 391.625 276.879 393.091 283.471C393.091 283.471 410.676 288.599 408.478 298.854C408.478 298.854 421.667 285.669 408.478 273.216C395.289 260.764 377.704 235.126 377.704 235.126C377.704 235.126 367.445 208.023 357.92 199.966L354.989 191.908C354.989 191.908 359.385 168.468 344.731 157.481C330.077 146.493 313.224 159.678 313.224 159.678Z" fill="#DB8B8B"/>
<path id="Vector_42" opacity="0.1" d="M322.749 437.297L303.699 447.552L297.837 443.157V440.227C304.42 439.759 310.815 437.83 316.558 434.579C318.316 433.583 319.972 432.601 321.299 431.737C322.068 435.129 322.749 437.297 322.749 437.297Z" fill="black"/>
<path id="Vector_43" opacity="0.1" d="M344.731 128.913L354.989 169.201C354.989 169.201 323.482 174.328 316.888 169.201C310.293 164.073 297.837 162.608 297.837 162.608C297.837 162.608 311.026 124.518 318.353 120.123C325.68 115.728 344.731 128.913 344.731 128.913Z" fill="black"/>
<path id="Vector_44" d="M344.731 127.448L354.989 167.736C354.989 167.736 323.482 172.863 316.888 167.736C310.293 162.608 297.837 161.143 297.837 161.143C297.837 161.143 311.026 123.053 318.353 118.658C325.68 114.263 344.731 127.448 344.731 127.448Z" fill="white"/>
<path id="Vector_45" opacity="0.1" d="M397.025 108.769C394.973 111.601 392.363 113.984 389.356 115.77C386.348 117.556 383.007 118.708 379.538 119.155C376.068 119.603 372.544 119.336 369.182 118.371C365.82 117.406 362.69 115.764 359.986 113.545C359.079 111.157 358.395 108.69 357.942 106.176L393.113 100.316C393.113 100.316 397.326 99.1369 397.025 108.769Z" fill="black"/>
<path id="Vector_46" d="M401.883 93.0205C401.883 99.82 399.181 106.341 394.372 111.149C389.563 115.957 383.04 118.658 376.238 118.658C369.437 118.658 362.914 115.957 358.104 111.149C353.295 106.341 350.593 99.82 350.593 93.0205C350.593 92.5956 350.593 92.1708 350.593 91.7459C350.762 84.9464 353.626 78.4925 358.555 73.8041C363.484 69.1156 370.074 66.5766 376.876 66.7456C383.677 66.9146 390.133 69.7778 394.823 74.7053C399.513 79.6328 402.052 86.221 401.883 93.0205V93.0205Z" fill="#DB8B8B"/>
<path id="Vector_47" opacity="0.05" d="M282.083 171.765C282.083 171.765 301.134 176.892 306.996 190.077C312.858 203.262 328.714 205.672 328.714 205.672" fill="black"/>
<path id="Vector_48" d="M353.89 461.836H309.927V475.753H353.89V461.836Z" fill="#AE5517"/>
<path id="Vector_49" opacity="0.1" d="M353.89 461.836H309.927V475.753H353.89V461.836Z" fill="black"/>
<path id="Vector_50" d="M316.529 436.008C320.463 433.81 323.914 431.613 324.215 430.704C324.215 430.704 334.143 441.179 342.987 444.431C345.961 445.53 348.808 446.944 351.479 448.651C354.982 450.848 359.979 453.434 364.515 453.434C364.515 453.434 374.773 462.224 354.989 463.689C335.206 465.154 289.044 460.026 289.044 460.026L291.975 441.714C300.539 442.216 309.065 440.234 316.529 436.008Z" fill="#ABB1D1"/>
</g>
<g id="rightWheel">
<path id="Vector_51" d="M499.291 525.49L494.705 453.778L494.609 453.624L489.978 455.236L468.664 517.359L434.775 493.333L488.769 454.21L488.821 454.057L489.129 453.947L492.609 451.42L436.014 419.695L422.143 434.931L424.341 449.215L489.407 450.372V451.837L423.11 450.65L420.619 434.455L439.589 413.615L467.96 380.528L468.466 381.898L474.474 375.305L496.851 379.312V378.426L498.317 378.47V379.576L531.553 385.524L500.537 447.53L496.016 450.804V451.17V451.581L567.684 426.617L559.177 493.429L498.361 454.701L496.221 453.5L532.081 511.287L499.291 525.49ZM496.36 456.386L500.647 523.322L529.992 510.591L496.36 456.386ZM437.325 493.333L467.946 515.037L487.978 456.628L437.325 493.333ZM497.643 452.562L499.174 453.419L558.048 490.923L565.962 428.756L497.643 452.562ZM492.44 447.288L494.28 450.255L494.602 450.02L496.8 380.777L475.009 376.865L469.03 383.458L492.44 447.288ZM437.201 418.684L492.037 449.449L491.085 447.889L467.946 384.696L440.688 414.641L437.201 418.684ZM498.288 381.041L496.089 448.936L499.401 446.534L529.377 386.6L498.288 381.041Z" fill="#535461"/>
<path id="Vector_52" d="M495.562 365.233C487.785 365.225 480.043 366.269 472.547 368.339C468.681 369.405 464.895 370.744 461.219 372.346C441.633 380.834 425.892 396.282 417.041 415.701C408.19 435.121 406.858 457.132 413.303 477.477C419.747 497.822 433.51 515.054 451.93 525.841C470.349 536.627 492.116 540.201 513.019 535.871C533.922 531.541 552.475 519.615 565.091 502.399C577.706 485.184 583.486 463.903 581.314 442.673C579.141 421.444 569.169 401.774 553.328 387.469C537.487 373.165 516.901 365.242 495.555 365.233H495.562ZM495.269 516.195C480.409 516.189 465.997 511.101 454.429 501.777C442.86 492.453 434.83 479.453 431.672 464.936C428.514 450.42 430.419 435.26 437.069 421.975C443.719 408.69 454.716 398.079 468.231 391.904C471.669 390.33 475.239 389.063 478.9 388.117C487.848 385.795 497.188 385.404 506.299 386.972C515.41 388.54 524.082 392.029 531.739 397.208C539.395 402.387 545.861 409.137 550.705 417.008C555.549 424.88 558.661 433.693 559.833 442.86C561.006 452.027 560.211 461.339 557.503 470.176C554.795 479.012 550.236 487.171 544.129 494.109C538.021 501.047 530.506 506.604 522.082 510.413C513.659 514.221 504.521 516.192 495.276 516.195H495.269Z" fill="#535461"/>
<path id="Vector_53" d="M495.269 460.503C500.453 460.503 504.655 456.301 504.655 451.119C504.655 445.937 500.453 441.736 495.269 441.736C490.085 441.736 485.883 445.937 485.883 451.119C485.883 456.301 490.085 460.503 495.269 460.503Z" fill="#535461"/>
</g>
<g id="leftWheel">
<path id="Vector_54" d="M187.013 525.197L182.418 453.456L182.323 453.302L177.692 454.914L156.385 517.067L122.496 493.048L176.476 453.925L176.527 453.771L176.835 453.661L180.316 451.134L123.72 419.409L109.857 434.645L112.055 448.929L177.136 450.116V451.581L110.839 450.394L108.333 434.176L127.31 413.329L155.703 380.22L156.209 381.59L162.217 374.998L184.536 378.997V378.111L186.001 378.155V379.261L219.238 385.209L188.251 447.186L183.73 450.46V450.826V451.236L255.39 426.273L246.883 493.084L186.067 454.357L183.928 453.156L219.787 510.935L187.013 525.197ZM184.082 456.093L188.368 523.029L217.714 510.298L184.082 456.093ZM125.039 493.033L155.659 514.737L175.692 456.327L125.039 493.033ZM185.357 452.262L186.888 453.119L245.762 490.623L253.676 428.456L185.357 452.262ZM180.154 446.988L181.993 449.955L182.316 449.72L184.514 380.477L162.723 376.58L156.744 383.172L180.154 446.988ZM124.892 418.376L179.729 449.141L178.777 447.581L155.637 384.388L128.388 414.326L124.892 418.376ZM186.001 380.733L183.803 448.651L187.115 446.248L217.091 386.315L186.001 380.733Z" fill="#535461"/>
<path id="Vector_55" d="M267.385 432.14C264.446 419.087 258.497 406.902 250.012 396.555C246.862 392.71 243.389 389.142 239.629 385.89C225.175 373.414 206.987 366.09 187.919 365.066C168.851 364.041 149.982 369.376 134.274 380.231C118.566 391.086 106.909 406.848 101.13 425.044C95.3522 443.239 95.7808 462.837 102.349 480.762C108.917 498.687 121.253 513.925 137.42 524.084C153.587 534.243 172.671 538.747 191.676 536.891C210.682 535.035 228.532 526.922 242.427 513.827C256.322 500.732 265.474 483.396 268.447 464.539C269.139 460.099 269.487 455.612 269.488 451.119C269.493 444.734 268.787 438.369 267.385 432.14ZM182.983 515.902C169.624 515.888 156.593 511.761 145.663 504.082C134.732 496.404 126.433 485.546 121.893 472.986C117.352 460.426 116.792 446.773 120.287 433.883C123.783 420.993 131.164 409.492 141.428 400.944C151.692 392.396 164.341 387.215 177.654 386.107C190.967 384.998 204.298 388.016 215.835 394.749C227.373 401.482 236.556 411.604 242.136 423.738C247.716 435.872 249.422 449.43 247.023 462.568C244.275 477.543 236.362 491.08 224.661 500.825C212.96 510.57 198.212 515.905 182.983 515.902V515.902Z" fill="#535461"/>
<path id="Vector_56" d="M182.983 460.21C188.167 460.21 192.369 456.008 192.369 450.826C192.369 445.644 188.167 441.443 182.983 441.443C177.799 441.443 173.596 445.644 173.596 450.826C173.596 456.008 177.799 460.21 182.983 460.21Z" fill="#535461"/>
</g>
<g id="hat">
<path id="Vector_57" d="M331.457 75.4439C333.018 80.337 340.513 80.4909 344.36 84.0948C346.361 85.97 347.291 88.7388 349.489 90.409C352.545 92.7383 356.956 92.2256 360.846 91.6689C368.679 90.5555 377.091 89.8889 384.154 93.2657C386.66 94.4597 388.91 96.1298 391.526 97.104C394.141 98.0783 397.387 98.1955 399.512 96.4668C401.212 95.0823 401.835 92.8042 403.374 91.2806C404.568 90.0793 406.231 89.4054 407.594 88.3506C410.584 86.0945 411.873 82.4174 412.723 78.9013C414.482 71.6642 414.987 63.8631 411.99 56.9995C408.994 50.136 401.784 44.547 393.914 44.9059C391.504 45.0158 389.152 45.6384 386.748 45.9021C380.483 46.5394 374.292 44.4371 368.005 44.0782C366.182 43.8563 364.332 44.1086 362.634 44.8107C361.355 45.5218 360.251 46.5105 359.403 47.7041C356.525 51.4731 354.554 55.8545 353.644 60.5082C352.911 64.0169 352.874 67.1959 348.573 67.738C343.686 68.3826 328.152 65.0937 331.457 75.4439Z" fill="#472727"/>
</g>
</g>
<defs>
<linearGradient id="paint0_linear" x1="754.5" y1="54" x2="26" y2="496.5" gradientUnits="userSpaceOnUse">
<stop stop-color="#AE5517"/>
<stop offset="0.9999" stop-color="#AE5517" stop-opacity="0.0729167"/>
<stop offset="1" stop-color="#AE5517" stop-opacity="0"/>
</linearGradient>
<clipPath id="clip0">
<rect width="775" height="575" fill="white"/>
</clipPath>
</defs>
</svg>
